<svg xmlns="http://www.w3.org/2000/svg" viewBox="0 0 100 100" width="100" height="100">

<defs>
  <radialGradient id="gunmetal" cx="32%" cy="24%" r="90%">
    <stop offset="0" stop-color="#88919b"/>
    <stop offset="0.28" stop-color="#5b616a"/>
    <stop offset="0.62" stop-color="#2e3238"/>
    <stop offset="1" stop-color="#0e1013"/>
  </radialGradient>
  <radialGradient id="steel" cx="30%" cy="22%" r="90%">
    <stop offset="0" stop-color="#ffffff"/>
    <stop offset="0.3" stop-color="#dbe4ec"/>
    <stop offset="0.62" stop-color="#96a2ad"/>
    <stop offset="1" stop-color="#3c434b"/>
  </radialGradient>
  <radialGradient id="rust" cx="30%" cy="22%" r="90%">
    <stop offset="0" stop-color="#ffd199"/>
    <stop offset="0.32" stop-color="#ff9a48"/>
    <stop offset="0.65" stop-color="#c2591c"/>
    <stop offset="1" stop-color="#3c1a08"/>
  </radialGradient>
  <radialGradient id="cyan" cx="32%" cy="22%" r="90%">
    <stop offset="0" stop-color="#ffffff"/>
    <stop offset="0.28" stop-color="#baffff"/>
    <stop offset="0.6" stop-color="#39d6ec"/>
    <stop offset="1" stop-color="#063e47"/>
  </radialGradient>
  <radialGradient id="radyellow" cx="32%" cy="22%" r="90%">
    <stop offset="0" stop-color="#ffffe8"/>
    <stop offset="0.3" stop-color="#fbef8a"/>
    <stop offset="0.65" stop-color="#dcbe28"/>
    <stop offset="1" stop-color="#4c3f08"/>
  </radialGradient>
  <radialGradient id="danger" cx="32%" cy="22%" r="90%">
    <stop offset="0" stop-color="#ffd4cf"/>
    <stop offset="0.3" stop-color="#ff6a5c"/>
    <stop offset="0.65" stop-color="#c72a1e"/>
    <stop offset="1" stop-color="#420a07"/>
  </radialGradient>
  <radialGradient id="bolt" cx="35%" cy="28%" r="85%">
    <stop offset="0" stop-color="#ffffff"/>
    <stop offset="0.35" stop-color="#c3ccd4"/>
    <stop offset="1" stop-color="#33383e"/>
  </radialGradient>
  <radialGradient id="glassDome" cx="50%" cy="0%" r="75%">
    <stop offset="0" stop-color="#ffffff" stop-opacity="0.75"/>
    <stop offset="0.55" stop-color="#ffffff" stop-opacity="0.18"/>
    <stop offset="1" stop-color="#ffffff" stop-opacity="0"/>
  </radialGradient>
  <filter id="softshadow" x="-50%" y="-50%" width="220%" height="220%">
    <feDropShadow dx="0" dy="2.5" stdDeviation="2.2" flood-color="#000000" flood-opacity="0.65"/>
  </filter>
  <filter id="blur1"><feGaussianBlur stdDeviation="1.1"/></filter>
  <filter id="blur2"><feGaussianBlur stdDeviation="2.6"/></filter>
  <filter id="blur3"><feGaussianBlur stdDeviation="5.5"/></filter>
</defs>

<circle cx="50" cy="52" r="40" fill="#38c9d8" opacity="0.30" filter="url(#blur3)"/>
<g filter="url(#softshadow)">

<ellipse cx="50" cy="88" rx="26" ry="5" fill="#000000" opacity="0.4" filter="url(#blur2)"/>
<polygon points="50,10 82,28 82,64 50,90 18,64 18,28" fill="#000" opacity="0.45" transform="translate(1.4,2)"/>
<polygon points="50,10 82,28 82,64 50,90 18,64 18,28" fill="url(#gunmetal)" stroke="#08090b" stroke-width="4"/>
<ellipse cx="48" cy="24" rx="30" ry="16" fill="url(#glassDome)"/>
<rect x="27" y="41" width="46" height="15" rx="4" fill="#000" opacity="0.4" transform="translate(0.6,1)"/>
<rect x="28" y="42" width="44" height="14" rx="4" fill="url(#cyan)"/>
<rect x="28" y="42" width="44" height="14" rx="4" fill="none" stroke="#04262b" stroke-width="1.5"/>
<rect x="30" y="44" width="40" height="3" fill="#ffffff" opacity="0.55"/>
<line x1="50" y1="10" x2="50" y2="2" stroke="url(#steel)" stroke-width="3"/>
<circle cx="50" cy="1.5" r="3" fill="url(#bolt)" stroke="#0d0e10" stroke-width="0.8"/><circle cx="49.1" cy="0.6000000000000001" r="0.8400000000000001" fill="#ffffff" opacity="0.85"/>
<circle cx="33" cy="70" r="2.5" fill="url(#bolt)" stroke="#0d0e10" stroke-width="0.8"/><circle cx="32.25" cy="69.25" r="0.7000000000000001" fill="#ffffff" opacity="0.85"/><circle cx="67" cy="70" r="2.5" fill="url(#bolt)" stroke="#0d0e10" stroke-width="0.8"/><circle cx="66.25" cy="69.25" r="0.7000000000000001" fill="#ffffff" opacity="0.85"/>
<line x1="24" y1="60" x2="30" y2="50" stroke="#000" stroke-width="1" opacity="0.3" stroke-linecap="round"/>
<line x1="70" y1="58" x2="76" y2="50" stroke="#000" stroke-width="1" opacity="0.3" stroke-linecap="round"/>

</g>
</svg>