<svg xmlns="http://www.w3.org/2000/svg" viewBox="0 0 100 100" width="100" height="100">

<defs>
  <radialGradient id="gunmetal" cx="32%" cy="24%" r="90%">
    <stop offset="0" stop-color="#88919b"/>
    <stop offset="0.28" stop-color="#5b616a"/>
    <stop offset="0.62" stop-color="#2e3238"/>
    <stop offset="1" stop-color="#0e1013"/>
  </radialGradient>
  <radialGradient id="steel" cx="30%" cy="22%" r="90%">
    <stop offset="0" stop-color="#ffffff"/>
    <stop offset="0.3" stop-color="#dbe4ec"/>
    <stop offset="0.62" stop-color="#96a2ad"/>
    <stop offset="1" stop-color="#3c434b"/>
  </radialGradient>
  <radialGradient id="rust" cx="30%" cy="22%" r="90%">
    <stop offset="0" stop-color="#ffd199"/>
    <stop offset="0.32" stop-color="#ff9a48"/>
    <stop offset="0.65" stop-color="#c2591c"/>
    <stop offset="1" stop-color="#3c1a08"/>
  </radialGradient>
  <radialGradient id="cyan" cx="32%" cy="22%" r="90%">
    <stop offset="0" stop-color="#ffffff"/>
    <stop offset="0.28" stop-color="#baffff"/>
    <stop offset="0.6" stop-color="#39d6ec"/>
    <stop offset="1" stop-color="#063e47"/>
  </radialGradient>
  <radialGradient id="radyellow" cx="32%" cy="22%" r="90%">
    <stop offset="0" stop-color="#ffffe8"/>
    <stop offset="0.3" stop-color="#fbef8a"/>
    <stop offset="0.65" stop-color="#dcbe28"/>
    <stop offset="1" stop-color="#4c3f08"/>
  </radialGradient>
  <radialGradient id="danger" cx="32%" cy="22%" r="90%">
    <stop offset="0" stop-color="#ffd4cf"/>
    <stop offset="0.3" stop-color="#ff6a5c"/>
    <stop offset="0.65" stop-color="#c72a1e"/>
    <stop offset="1" stop-color="#420a07"/>
  </radialGradient>
  <radialGradient id="bolt" cx="35%" cy="28%" r="85%">
    <stop offset="0" stop-color="#ffffff"/>
    <stop offset="0.35" stop-color="#c3ccd4"/>
    <stop offset="1" stop-color="#33383e"/>
  </radialGradient>
  <radialGradient id="glassDome" cx="50%" cy="0%" r="75%">
    <stop offset="0" stop-color="#ffffff" stop-opacity="0.75"/>
    <stop offset="0.55" stop-color="#ffffff" stop-opacity="0.18"/>
    <stop offset="1" stop-color="#ffffff" stop-opacity="0"/>
  </radialGradient>
  <filter id="softshadow" x="-50%" y="-50%" width="220%" height="220%">
    <feDropShadow dx="0" dy="2.5" stdDeviation="2.2" flood-color="#000000" flood-opacity="0.65"/>
  </filter>
  <filter id="blur1"><feGaussianBlur stdDeviation="1.1"/></filter>
  <filter id="blur2"><feGaussianBlur stdDeviation="2.6"/></filter>
  <filter id="blur3"><feGaussianBlur stdDeviation="5.5"/></filter>
</defs>

<circle cx="50" cy="52" r="40" fill="#e0392c" opacity="0.30" filter="url(#blur3)"/>
<g filter="url(#softshadow)">

<ellipse cx="50" cy="90" rx="30" ry="5" fill="#000000" opacity="0.4" filter="url(#blur2)"/>
<polygon points="35,8 65,8 92,35 92,65 65,92 35,92 8,65 8,35" fill="#000" opacity="0.5" transform="translate(1.5,2.5)"/>
<polygon points="35,8 65,8 92,35 92,65 65,92 35,92 8,65 8,35" fill="url(#gunmetal)" stroke="#08090b" stroke-width="3"/>
<ellipse cx="46" cy="26" rx="34" ry="18" fill="url(#glassDome)"/>
<circle cx="20" cy="30" r="2.8" fill="url(#bolt)" stroke="#0d0e10" stroke-width="0.8"/><circle cx="19.16" cy="29.16" r="0.784" fill="#ffffff" opacity="0.85"/><circle cx="80" cy="30" r="2.8" fill="url(#bolt)" stroke="#0d0e10" stroke-width="0.8"/><circle cx="79.16" cy="29.16" r="0.784" fill="#ffffff" opacity="0.85"/><circle cx="20" cy="70" r="2.8" fill="url(#bolt)" stroke="#0d0e10" stroke-width="0.8"/><circle cx="19.16" cy="69.16" r="0.784" fill="#ffffff" opacity="0.85"/><circle cx="80" cy="70" r="2.8" fill="url(#bolt)" stroke="#0d0e10" stroke-width="0.8"/><circle cx="79.16" cy="69.16" r="0.784" fill="#ffffff" opacity="0.85"/>
<g transform="rotate(45 50 50)">
  <rect x="45" y="15" width="10" height="70" rx="3.5" fill="#000" opacity="0.4" transform="translate(1,1.5)"/>
  <rect x="45" y="15" width="10" height="70" rx="3.5" fill="url(#danger)" stroke="#340705" stroke-width="1.5"/>
  <rect x="47" y="18" width="2.4" height="34" rx="1" fill="#ffe4e0" opacity="0.6"/>
</g>
<g transform="rotate(-45 50 50)">
  <rect x="45" y="15" width="10" height="70" rx="3.5" fill="#000" opacity="0.4" transform="translate(1,1.5)"/>
  <rect x="45" y="15" width="10" height="70" rx="3.5" fill="url(#danger)" stroke="#340705" stroke-width="1.5"/>
  <rect x="47" y="18" width="2.4" height="34" rx="1" fill="#ffe4e0" opacity="0.6"/>
</g>

</g>
</svg>