<svg xmlns="http://www.w3.org/2000/svg" viewBox="0 0 100 100" width="100" height="100">

<defs>
  <radialGradient id="gunmetal" cx="32%" cy="24%" r="90%">
    <stop offset="0" stop-color="#88919b"/>
    <stop offset="0.28" stop-color="#5b616a"/>
    <stop offset="0.62" stop-color="#2e3238"/>
    <stop offset="1" stop-color="#0e1013"/>
  </radialGradient>
  <radialGradient id="steel" cx="30%" cy="22%" r="90%">
    <stop offset="0" stop-color="#ffffff"/>
    <stop offset="0.3" stop-color="#dbe4ec"/>
    <stop offset="0.62" stop-color="#96a2ad"/>
    <stop offset="1" stop-color="#3c434b"/>
  </radialGradient>
  <radialGradient id="rust" cx="30%" cy="22%" r="90%">
    <stop offset="0" stop-color="#ffd199"/>
    <stop offset="0.32" stop-color="#ff9a48"/>
    <stop offset="0.65" stop-color="#c2591c"/>
    <stop offset="1" stop-color="#3c1a08"/>
  </radialGradient>
  <radialGradient id="cyan" cx="32%" cy="22%" r="90%">
    <stop offset="0" stop-color="#ffffff"/>
    <stop offset="0.28" stop-color="#baffff"/>
    <stop offset="0.6" stop-color="#39d6ec"/>
    <stop offset="1" stop-color="#063e47"/>
  </radialGradient>
  <radialGradient id="radyellow" cx="32%" cy="22%" r="90%">
    <stop offset="0" stop-color="#ffffe8"/>
    <stop offset="0.3" stop-color="#fbef8a"/>
    <stop offset="0.65" stop-color="#dcbe28"/>
    <stop offset="1" stop-color="#4c3f08"/>
  </radialGradient>
  <radialGradient id="danger" cx="32%" cy="22%" r="90%">
    <stop offset="0" stop-color="#ffd4cf"/>
    <stop offset="0.3" stop-color="#ff6a5c"/>
    <stop offset="0.65" stop-color="#c72a1e"/>
    <stop offset="1" stop-color="#420a07"/>
  </radialGradient>
  <radialGradient id="bolt" cx="35%" cy="28%" r="85%">
    <stop offset="0" stop-color="#ffffff"/>
    <stop offset="0.35" stop-color="#c3ccd4"/>
    <stop offset="1" stop-color="#33383e"/>
  </radialGradient>
  <radialGradient id="glassDome" cx="50%" cy="0%" r="75%">
    <stop offset="0" stop-color="#ffffff" stop-opacity="0.75"/>
    <stop offset="0.55" stop-color="#ffffff" stop-opacity="0.18"/>
    <stop offset="1" stop-color="#ffffff" stop-opacity="0"/>
  </radialGradient>
  <filter id="softshadow" x="-50%" y="-50%" width="220%" height="220%">
    <feDropShadow dx="0" dy="2.5" stdDeviation="2.2" flood-color="#000000" flood-opacity="0.65"/>
  </filter>
  <filter id="blur1"><feGaussianBlur stdDeviation="1.1"/></filter>
  <filter id="blur2"><feGaussianBlur stdDeviation="2.6"/></filter>
  <filter id="blur3"><feGaussianBlur stdDeviation="5.5"/></filter>
</defs>

<circle cx="50" cy="52" r="40" fill="#e07a2c" opacity="0.30" filter="url(#blur3)"/>
<g filter="url(#softshadow)">

<ellipse cx="50" cy="80" rx="42" ry="6" fill="#000000" opacity="0.4" filter="url(#blur2)"/>
<rect x="10" y="46" width="48" height="24" rx="3" fill="#000" opacity="0.4" transform="translate(1.2,1.8)"/>
<rect x="10" y="46" width="48" height="24" rx="3" fill="url(#rust)" stroke="#251004" stroke-width="2.5"/>
<ellipse cx="24" cy="50" rx="20" ry="9" fill="url(#glassDome)"/>
<rect x="14" y="52" width="14" height="10" rx="1.5" fill="#251004" opacity="0.5"/>
<rect x="15" y="53" width="12" height="3" fill="#5c2a0e" opacity="0.5"/>
<polygon points="58,46 78,46 90,60 90,70 58,70" fill="#000" opacity="0.4" transform="translate(1.2,1.8)"/>
<polygon points="58,46 78,46 90,60 90,70 58,70" fill="url(#gunmetal)" stroke="#08090b" stroke-width="2.5"/>
<rect x="63" y="50" width="14" height="10" rx="1.5" fill="url(#cyan)"/>
<ellipse cx="67" cy="53" rx="4" ry="2.5" fill="#ffffff" opacity="0.55" filter="url(#blur2)" transform="rotate(-20 67 53)"/>
<circle cx="26" cy="74" r="9" fill="#000" opacity="0.3" transform="translate(0.5,1)"/>
<circle cx="26" cy="74" r="8" fill="#191b1e" stroke="url(#steel)" stroke-width="2.5"/>
<circle cx="26" cy="74" r="3" fill="url(#bolt)" stroke="#0d0e10" stroke-width="0.8"/><circle cx="25.1" cy="73.1" r="0.8400000000000001" fill="#ffffff" opacity="0.85"/>
<circle cx="72" cy="74" r="9" fill="#000" opacity="0.3" transform="translate(0.5,1)"/>
<circle cx="72" cy="74" r="8" fill="#191b1e" stroke="url(#steel)" stroke-width="2.5"/>
<circle cx="72" cy="74" r="3" fill="url(#bolt)" stroke="#0d0e10" stroke-width="0.8"/><circle cx="71.1" cy="73.1" r="0.8400000000000001" fill="#ffffff" opacity="0.85"/>
<line x1="34" y1="50" x2="44" y2="58" stroke="#3a1c08" stroke-width="1" opacity="0.4" stroke-linecap="round"/>
<line x1="40" y1="64" x2="50" y2="60" stroke="#3a1c08" stroke-width="1" opacity="0.4" stroke-linecap="round"/>

</g>
</svg>