<svg xmlns="http://www.w3.org/2000/svg" viewBox="0 0 100 100" width="100" height="100">

<defs>
  <radialGradient id="gunmetal" cx="32%" cy="24%" r="90%">
    <stop offset="0" stop-color="#88919b"/>
    <stop offset="0.28" stop-color="#5b616a"/>
    <stop offset="0.62" stop-color="#2e3238"/>
    <stop offset="1" stop-color="#0e1013"/>
  </radialGradient>
  <radialGradient id="steel" cx="30%" cy="22%" r="90%">
    <stop offset="0" stop-color="#ffffff"/>
    <stop offset="0.3" stop-color="#dbe4ec"/>
    <stop offset="0.62" stop-color="#96a2ad"/>
    <stop offset="1" stop-color="#3c434b"/>
  </radialGradient>
  <radialGradient id="rust" cx="30%" cy="22%" r="90%">
    <stop offset="0" stop-color="#ffd199"/>
    <stop offset="0.32" stop-color="#ff9a48"/>
    <stop offset="0.65" stop-color="#c2591c"/>
    <stop offset="1" stop-color="#3c1a08"/>
  </radialGradient>
  <radialGradient id="cyan" cx="32%" cy="22%" r="90%">
    <stop offset="0" stop-color="#ffffff"/>
    <stop offset="0.28" stop-color="#baffff"/>
    <stop offset="0.6" stop-color="#39d6ec"/>
    <stop offset="1" stop-color="#063e47"/>
  </radialGradient>
  <radialGradient id="radyellow" cx="32%" cy="22%" r="90%">
    <stop offset="0" stop-color="#ffffe8"/>
    <stop offset="0.3" stop-color="#fbef8a"/>
    <stop offset="0.65" stop-color="#dcbe28"/>
    <stop offset="1" stop-color="#4c3f08"/>
  </radialGradient>
  <radialGradient id="danger" cx="32%" cy="22%" r="90%">
    <stop offset="0" stop-color="#ffd4cf"/>
    <stop offset="0.3" stop-color="#ff6a5c"/>
    <stop offset="0.65" stop-color="#c72a1e"/>
    <stop offset="1" stop-color="#420a07"/>
  </radialGradient>
  <radialGradient id="bolt" cx="35%" cy="28%" r="85%">
    <stop offset="0" stop-color="#ffffff"/>
    <stop offset="0.35" stop-color="#c3ccd4"/>
    <stop offset="1" stop-color="#33383e"/>
  </radialGradient>
  <radialGradient id="glassDome" cx="50%" cy="0%" r="75%">
    <stop offset="0" stop-color="#ffffff" stop-opacity="0.75"/>
    <stop offset="0.55" stop-color="#ffffff" stop-opacity="0.18"/>
    <stop offset="1" stop-color="#ffffff" stop-opacity="0"/>
  </radialGradient>
  <filter id="softshadow" x="-50%" y="-50%" width="220%" height="220%">
    <feDropShadow dx="0" dy="2.5" stdDeviation="2.2" flood-color="#000000" flood-opacity="0.65"/>
  </filter>
  <filter id="blur1"><feGaussianBlur stdDeviation="1.1"/></filter>
  <filter id="blur2"><feGaussianBlur stdDeviation="2.6"/></filter>
  <filter id="blur3"><feGaussianBlur stdDeviation="5.5"/></filter>
</defs>

<circle cx="50" cy="52" r="40" fill="#d8c22a" opacity="0.30" filter="url(#blur3)"/>
<g filter="url(#softshadow)">

<ellipse cx="50" cy="85" rx="26" ry="5" fill="#000000" opacity="0.4" filter="url(#blur2)"/>
<polygon points="50,7 92,85 8,85" fill="#000" opacity="0.5" transform="translate(1.5,2.5)"/>
<polygon points="50,7 92,85 8,85" fill="url(#radyellow)" stroke="#171408" stroke-width="4" stroke-linejoin="round"/>
<polygon points="50,19 82,79 18,79" fill="none" stroke="#7a6a12" stroke-width="1.2" opacity="0.5"/>
<ellipse cx="50" cy="30" rx="34" ry="22" fill="url(#glassDome)"/>
<line x1="28" y1="62" x2="36" y2="52" stroke="#5e4f0a" stroke-width="1" opacity="0.35" stroke-linecap="round"/>
<line x1="62" y1="68" x2="70" y2="56" stroke="#5e4f0a" stroke-width="1" opacity="0.35" stroke-linecap="round"/>
<rect x="45.5" y="32" width="9" height="27" rx="2.5" fill="#191b1e"/>
<rect x="46.5" y="33" width="2" height="23" rx="1" fill="#4a4d53" opacity="0.55"/>
<circle cx="50" cy="73" r="5" fill="#191b1e"/>
<circle cx="48.5" cy="71.5" r="1.4" fill="#5a5d63" opacity="0.7"/>
<circle cx="50" cy="11" r="2.7" fill="url(#bolt)" stroke="#0d0e10" stroke-width="0.8"/><circle cx="49.19" cy="10.19" r="0.7560000000000001" fill="#ffffff" opacity="0.85"/><circle cx="13" cy="81" r="2.7" fill="url(#bolt)" stroke="#0d0e10" stroke-width="0.8"/><circle cx="12.19" cy="80.19" r="0.7560000000000001" fill="#ffffff" opacity="0.85"/><circle cx="87" cy="81" r="2.7" fill="url(#bolt)" stroke="#0d0e10" stroke-width="0.8"/><circle cx="86.19" cy="80.19" r="0.7560000000000001" fill="#ffffff" opacity="0.85"/>

</g>
</svg>